<mxfile host="app.diagrams.net" modified="2023-05-26T04:49:13.300Z" agent="Mozilla/5.0 (Windows NT 10.0; Win64; x64) AppleWebKit/537.36 (KHTML, like Gecko) Chrome/113.0.0.0 Safari/537.36" etag="fj_9MP7Glfne5kdltp7c" version="21.3.2" type="device">
  <diagram name="페이지-1" id="IBJ7UJXN8_3nODnUmpq7">
    <mxGraphModel dx="1434" dy="756" grid="1" gridSize="10" guides="1" tooltips="1" connect="1" arrows="1" fold="1" page="1" pageScale="1" pageWidth="4681" pageHeight="3300" math="0" shadow="0">
      <root>
        <mxCell id="0" />
        <mxCell id="1" parent="0" />
        <mxCell id="7NuM41tbJb5_vhDG0j0K-9" style="rounded=0;orthogonalLoop=1;jettySize=auto;html=1;entryX=0.5;entryY=0;entryDx=0;entryDy=0;exitX=0.5;exitY=1;exitDx=0;exitDy=0;" edge="1" parent="1" source="7NuM41tbJb5_vhDG0j0K-1" target="7NuM41tbJb5_vhDG0j0K-2">
          <mxGeometry relative="1" as="geometry" />
        </mxCell>
        <mxCell id="7NuM41tbJb5_vhDG0j0K-1" value="&lt;font style=&quot;font-size: 20px;&quot;&gt;메모장&lt;/font&gt;" style="rounded=1;arcSize=10;whiteSpace=wrap;html=1;align=center;" vertex="1" parent="1">
          <mxGeometry x="760" y="220" width="160" height="60" as="geometry" />
        </mxCell>
        <mxCell id="7NuM41tbJb5_vhDG0j0K-2" value="&lt;font style=&quot;font-size: 20px;&quot;&gt;일련번호&lt;/font&gt;" style="ellipse;whiteSpace=wrap;html=1;align=center;" vertex="1" parent="1">
          <mxGeometry x="410" y="390" width="140" height="70" as="geometry" />
        </mxCell>
        <mxCell id="7NuM41tbJb5_vhDG0j0K-3" value="&lt;font style=&quot;font-size: 20px;&quot;&gt;작성자&lt;/font&gt;" style="ellipse;whiteSpace=wrap;html=1;align=center;" vertex="1" parent="1">
          <mxGeometry x="590" y="390" width="140" height="70" as="geometry" />
        </mxCell>
        <mxCell id="7NuM41tbJb5_vhDG0j0K-4" value="&lt;font style=&quot;font-size: 20px;&quot;&gt;제목&lt;/font&gt;" style="ellipse;whiteSpace=wrap;html=1;align=center;" vertex="1" parent="1">
          <mxGeometry x="950" y="390" width="140" height="70" as="geometry" />
        </mxCell>
        <mxCell id="7NuM41tbJb5_vhDG0j0K-5" value="&lt;font style=&quot;font-size: 20px;&quot;&gt;작성일자&lt;/font&gt;" style="ellipse;whiteSpace=wrap;html=1;align=center;" vertex="1" parent="1">
          <mxGeometry x="770" y="390" width="140" height="70" as="geometry" />
        </mxCell>
        <mxCell id="7NuM41tbJb5_vhDG0j0K-8" value="&lt;font style=&quot;font-size: 20px;&quot;&gt;내용&lt;/font&gt;" style="ellipse;whiteSpace=wrap;html=1;align=center;" vertex="1" parent="1">
          <mxGeometry x="1130" y="390" width="140" height="70" as="geometry" />
        </mxCell>
        <mxCell id="7NuM41tbJb5_vhDG0j0K-10" style="rounded=0;orthogonalLoop=1;jettySize=auto;html=1;entryX=0.5;entryY=0;entryDx=0;entryDy=0;" edge="1" parent="1" target="7NuM41tbJb5_vhDG0j0K-3">
          <mxGeometry relative="1" as="geometry">
            <mxPoint x="843" y="280" as="sourcePoint" />
            <mxPoint x="560" y="390" as="targetPoint" />
          </mxGeometry>
        </mxCell>
        <mxCell id="7NuM41tbJb5_vhDG0j0K-11" style="rounded=0;orthogonalLoop=1;jettySize=auto;html=1;entryX=0.5;entryY=0;entryDx=0;entryDy=0;exitX=0.5;exitY=1;exitDx=0;exitDy=0;" edge="1" parent="1" source="7NuM41tbJb5_vhDG0j0K-1" target="7NuM41tbJb5_vhDG0j0K-5">
          <mxGeometry relative="1" as="geometry">
            <mxPoint x="783" y="300" as="sourcePoint" />
            <mxPoint x="500" y="410" as="targetPoint" />
          </mxGeometry>
        </mxCell>
        <mxCell id="7NuM41tbJb5_vhDG0j0K-12" style="rounded=0;orthogonalLoop=1;jettySize=auto;html=1;entryX=0.5;entryY=0;entryDx=0;entryDy=0;exitX=0.5;exitY=1;exitDx=0;exitDy=0;" edge="1" parent="1" source="7NuM41tbJb5_vhDG0j0K-1" target="7NuM41tbJb5_vhDG0j0K-4">
          <mxGeometry relative="1" as="geometry">
            <mxPoint x="793" y="310" as="sourcePoint" />
            <mxPoint x="510" y="420" as="targetPoint" />
          </mxGeometry>
        </mxCell>
        <mxCell id="7NuM41tbJb5_vhDG0j0K-13" style="rounded=0;orthogonalLoop=1;jettySize=auto;html=1;entryX=0.5;entryY=0;entryDx=0;entryDy=0;exitX=0.5;exitY=1;exitDx=0;exitDy=0;" edge="1" parent="1" source="7NuM41tbJb5_vhDG0j0K-1" target="7NuM41tbJb5_vhDG0j0K-8">
          <mxGeometry relative="1" as="geometry">
            <mxPoint x="803" y="320" as="sourcePoint" />
            <mxPoint x="520" y="430" as="targetPoint" />
          </mxGeometry>
        </mxCell>
      </root>
    </mxGraphModel>
  </diagram>
</mxfile>
